<svg xmlns="http://www.w3.org/2000/svg" viewBox="0 0 512 512" role="img" aria-label="Poundwise app icon">
  <rect width="512" height="512" rx="108" fill="#3d115c"/>
  <path d="M64 0h384c35 0 64 29 64 64v42L64 512A64 64 0 0 1 0 448V64C0 29 29 0 64 0z" fill="#6b258d"/>
  <path d="M72 392h368v56H72z" fill="#ffd166"/>
  <path d="M376 80c30 0 54 24 54 54s-24 54-54 54-54-24-54-54 24-54 54-54z" fill="#ff4fa3"/>
  <path d="M111 331c29 32 71 52 118 52 88 0 160-72 160-160 0-47-20-89-52-118l-31 31c24 21 39 52 39 87 0 64-52 116-116 116-35 0-66-15-87-39z" fill="#13a477"/>
  <path d="M185 348V164c0-45 34-78 86-78 39 0 70 16 91 45l-39 31c-12-18-28-27-49-27-25 0-41 14-41 36v47h91v45h-91v85z" fill="#ffffff"/>
  <path d="M156 252h161v42H156z" fill="#ffffff"/>
</svg>
